<?xml version="1.0" encoding="iso-8859-1"?>
<!-- Generator: Adobe Illustrator 16.0.0, SVG Export Plug-In . SVG Version: 6.00 Build 0)  -->
<!DOCTYPE svg PUBLIC "-//W3C//DTD SVG 1.1//EN" "http://www.w3.org/Graphics/SVG/1.1/DTD/svg11.dtd">
<svg version="1.1" id="Capa_1" xmlns="http://www.w3.org/2000/svg" xmlns:xlink="http://www.w3.org/1999/xlink" x="0px" y="0px"
	 width="330.519px" height="330.519px" viewBox="0 0 330.519 330.519" style="enable-background:new 0 0 330.519 330.519;"
	 xml:space="preserve" fill="#fff">
<g>
	<path d="M328.933,20.582L309.924,1.575c-1.917-1.914-4.966-2.108-7.104-0.446l-30.572,23.788c-1.596,1.005-2.95,2.079-4.13,3.267
		c-4.578,4.57-7.087,10.644-7.087,17.103c0,4.625,1.338,9.026,3.747,12.843l-93.975,93.967L146.1,127.392
		c-2.105-2.103-5.501-2.103-7.602,0l-16.278,16.276c-2.1,2.097-2.1,5.499,0,7.601c4.189,4.192,4.189,11.011,0,15.2
		c-4.069,4.064-11.149,4.057-15.208,0c-2.016-2.016-5.585-2.016-7.601,0l-86.043,86.049c-17.811,17.815-17.811,46.803,0,64.619
		c8.631,8.625,20.105,13.382,32.311,13.382c12.205,0,23.675-4.757,32.31-13.382l86.043-86.043c1.008-1.013,1.574-2.377,1.574-3.8
		c0-1.428-0.566-2.797-1.574-3.802c-2.032-2.031-3.15-4.729-3.15-7.606c0-2.875,1.118-5.573,3.15-7.606
		c4.063-4.057,11.14-4.057,15.201,0c2.101,2.101,5.497,2.101,7.602,0l16.274-16.277c2.104-2.101,2.104-5.495,0-7.602l-24.71-24.704
		l93.985-93.971c3.817,2.406,8.217,3.745,12.84,3.745c6.458,0,12.535-2.515,17.093-7.074c1.202-1.192,2.272-2.549,3.28-4.139
		l23.779-30.576C331.036,25.538,330.853,22.496,328.933,20.582z M31.427,275.945c-1.376,0-2.756-0.525-3.801-1.574
		c-2.105-2.106-2.105-5.503,0-7.602l75.146-75.151c2.105-2.099,5.501-2.099,7.601,0c2.105,2.105,2.105,5.502,0,7.601l-75.146,75.152
		C34.172,275.426,32.797,275.945,31.427,275.945z M46.634,291.152c-1.381,0-2.756-0.529-3.801-1.574
		c-2.105-2.105-2.105-5.502,0-7.601l75.146-75.152c2.105-2.099,5.501-2.099,7.601,0c2.105,2.106,2.105,5.503,0,7.602l-75.146,75.151
		C49.379,290.623,48.004,291.152,46.634,291.152z M138.887,227.735l-75.15,75.145c-1.05,1.05-2.426,1.574-3.801,1.574
		s-2.75-0.524-3.801-1.574c-2.1-2.101-2.1-5.495,0-7.601l75.151-75.146c2.1-2.105,5.496-2.105,7.601,0
		C140.987,222.232,140.982,225.63,138.887,227.735z"/>
</g>
<g>
</g>
<g>
</g>
<g>
</g>
<g>
</g>
<g>
</g>
<g>
</g>
<g>
</g>
<g>
</g>
<g>
</g>
<g>
</g>
<g>
</g>
<g>
</g>
<g>
</g>
<g>
</g>
<g>
</g>
</svg>
